<?xml version="1.0" encoding="UTF-8"?>
<svg id="Layer_1" data-name="Layer 1" xmlns="http://www.w3.org/2000/svg" width="869.83" height="749.18" viewBox="0 0 869.83 749.18">
  <defs>
    <style>
      .cls-1 {
        fill: #231f20;
      }

      .cls-2 {
        fill: none;
        stroke: #231f20;
        stroke-linecap: round;
        stroke-linejoin: round;
        stroke-width: 60px;
      }
    </style>
  </defs>
  <g id="Soundwaves_Longer_" data-name="Soundwaves (Longer)">
    <path id="Soundwave_Inner" data-name="Soundwave Inner" class="cls-2" d="M576.28,475.23c15.17-30.28,23.72-64.46,23.72-100.64s-8.55-70.35-23.72-100.64"/>
    <path id="Soundwave_Middle" data-name="Soundwave Middle" class="cls-2" d="M683.62,528.9c23.26-46.44,36.38-98.84,36.38-154.31s-13.11-107.88-36.38-154.31"/>
    <path id="Soundwave_Outer" data-name="Soundwave Outer" class="cls-2" d="M790.84,582.51c31.34-62.56,48.99-133.18,48.99-207.92s-17.65-145.36-48.99-207.92"/>
  </g>
  <path id="Letter_C" data-name="Letter C" class="cls-1" d="M494.9,546.34c-8.9-4.45-19.43-4.2-28.1.68-123.33,69.39-293.3-29.31-286.77-175.54-2.02-143.53,165.45-237.47,286.75-169.34,8.68,4.88,19.21,5.15,28.12.69l121.48-60.74c18.97-9.48,22.34-35.08,6.55-49.23C389.92-115.86-1.05,48.49,0,374.59c-1.05,326.1,389.98,490.45,622.93,281.72,15.79-14.15,12.41-39.74-6.55-49.23l-121.48-60.74Z"/>
</svg>